<svg xmlns="http://www.w3.org/2000/svg" version="1.1" xmlns:xlink="http://www.w3.org/1999/xlink" xmlns:svgjs="http://svgjs.dev/svgjs"  viewBox="0 0 20 20" width="20" height="20">
    <rect width="1" height="1" x="0" y="0" fill="hsl(0, 0%, 0%)"></rect><rect width="1" height="1" x="1" y="0" fill="hsl(0, 0%, 0%)"></rect><rect width="1" height="1" x="2" y="0" fill="hsl(0, 0%, 0%)"></rect><rect width="1" height="1" x="3" y="0" fill="hsl(0, 0%, 0%)"></rect><rect width="1" height="1" x="4" y="0" fill="hsl(0, 0%, 0%)"></rect><rect width="1" height="1" x="5" y="0" fill="hsl(0, 0%, 0%)"></rect><rect width="1" height="1" x="6" y="0" fill="hsl(0, 0%, 0%)"></rect><rect width="1" height="1" x="7" y="0" fill="hsl(0, 0%, 0%)"></rect><rect width="1" height="1" x="8" y="0" fill="hsl(0, 0%, 0%)"></rect><rect width="1" height="1" x="9" y="0" fill="hsl(0, 0%, 0%)"></rect><rect width="1" height="1" x="10" y="0" fill="hsl(0, 0%, 0%)"></rect><rect width="1" height="1" x="11" y="0" fill="hsl(0, 0%, 0%)"></rect><rect width="1" height="1" x="12" y="0" fill="hsl(0, 0%, 0%)"></rect><rect width="1" height="1" x="13" y="0" fill="hsl(0, 0%, 0%)"></rect><rect width="1" height="1" x="14" y="0" fill="hsl(0, 0%, 0%)"></rect><rect width="1" height="1" x="15" y="0" fill="hsl(0, 0%, 0%)"></rect><rect width="1" height="1" x="16" y="0" fill="hsl(0, 0%, 0%)"></rect><rect width="1" height="1" x="0" y="1" fill="hsl(0, 0%, 0%)"></rect><rect width="1" height="1" x="3" y="1" fill="hsl(0, 0%, 0%)"></rect><rect width="1" height="1" x="11" y="1" fill="hsl(0, 0%, 0%)"></rect><rect width="1" height="1" x="12" y="1" fill="hsl(0, 0%, 0%)"></rect><rect width="1" height="1" x="15" y="1" fill="hsl(0, 0%, 0%)"></rect><rect width="1" height="1" x="17" y="1" fill="hsl(0, 0%, 0%)"></rect><rect width="1" height="1" x="0" y="2" fill="hsl(0, 0%, 0%)"></rect><rect width="1" height="1" x="3" y="2" fill="hsl(0, 0%, 0%)"></rect><rect width="1" height="1" x="11" y="2" fill="hsl(0, 0%, 0%)"></rect><rect width="1" height="1" x="12" y="2" fill="hsl(0, 0%, 0%)"></rect><rect width="1" height="1" x="15" y="2" fill="hsl(0, 0%, 0%)"></rect><rect width="1" height="1" x="18" y="2" fill="hsl(0, 0%, 0%)"></rect><rect width="1" height="1" x="0" y="3" fill="hsl(0, 0%, 0%)"></rect><rect width="1" height="1" x="3" y="3" fill="hsl(0, 0%, 0%)"></rect><rect width="1" height="1" x="11" y="3" fill="hsl(0, 0%, 0%)"></rect><rect width="1" height="1" x="12" y="3" fill="hsl(0, 0%, 0%)"></rect><rect width="1" height="1" x="15" y="3" fill="hsl(0, 0%, 0%)"></rect><rect width="1" height="1" x="19" y="3" fill="hsl(0, 0%, 0%)"></rect><rect width="1" height="1" x="0" y="4" fill="hsl(0, 0%, 0%)"></rect><rect width="1" height="1" x="3" y="4" fill="hsl(0, 0%, 0%)"></rect><rect width="1" height="1" x="15" y="4" fill="hsl(0, 0%, 0%)"></rect><rect width="1" height="1" x="19" y="4" fill="hsl(0, 0%, 0%)"></rect><rect width="1" height="1" x="0" y="5" fill="hsl(0, 0%, 0%)"></rect><rect width="1" height="1" x="3" y="5" fill="hsl(0, 0%, 0%)"></rect><rect width="1" height="1" x="4" y="5" fill="hsl(0, 0%, 0%)"></rect><rect width="1" height="1" x="5" y="5" fill="hsl(0, 0%, 0%)"></rect><rect width="1" height="1" x="6" y="5" fill="hsl(0, 0%, 0%)"></rect><rect width="1" height="1" x="7" y="5" fill="hsl(0, 0%, 0%)"></rect><rect width="1" height="1" x="8" y="5" fill="hsl(0, 0%, 0%)"></rect><rect width="1" height="1" x="9" y="5" fill="hsl(0, 0%, 0%)"></rect><rect width="1" height="1" x="10" y="5" fill="hsl(0, 0%, 0%)"></rect><rect width="1" height="1" x="11" y="5" fill="hsl(0, 0%, 0%)"></rect><rect width="1" height="1" x="12" y="5" fill="hsl(0, 0%, 0%)"></rect><rect width="1" height="1" x="13" y="5" fill="hsl(0, 0%, 0%)"></rect><rect width="1" height="1" x="14" y="5" fill="hsl(0, 0%, 0%)"></rect><rect width="1" height="1" x="15" y="5" fill="hsl(0, 0%, 0%)"></rect><rect width="1" height="1" x="19" y="5" fill="hsl(0, 0%, 0%)"></rect><rect width="1" height="1" x="0" y="6" fill="hsl(0, 0%, 0%)"></rect><rect width="1" height="1" x="19" y="6" fill="hsl(0, 0%, 0%)"></rect><rect width="1" height="1" x="0" y="7" fill="hsl(0, 0%, 0%)"></rect><rect width="1" height="1" x="19" y="7" fill="hsl(0, 0%, 0%)"></rect><rect width="1" height="1" x="0" y="8" fill="hsl(0, 0%, 0%)"></rect><rect width="1" height="1" x="4" y="8" fill="hsl(0, 0%, 0%)"></rect><rect width="1" height="1" x="5" y="8" fill="hsl(0, 0%, 0%)"></rect><rect width="1" height="1" x="6" y="8" fill="hsl(0, 0%, 0%)"></rect><rect width="1" height="1" x="7" y="8" fill="hsl(0, 0%, 0%)"></rect><rect width="1" height="1" x="8" y="8" fill="hsl(0, 0%, 0%)"></rect><rect width="1" height="1" x="9" y="8" fill="hsl(0, 0%, 0%)"></rect><rect width="1" height="1" x="10" y="8" fill="hsl(0, 0%, 0%)"></rect><rect width="1" height="1" x="11" y="8" fill="hsl(0, 0%, 0%)"></rect><rect width="1" height="1" x="12" y="8" fill="hsl(0, 0%, 0%)"></rect><rect width="1" height="1" x="13" y="8" fill="hsl(0, 0%, 0%)"></rect><rect width="1" height="1" x="14" y="8" fill="hsl(0, 0%, 0%)"></rect><rect width="1" height="1" x="19" y="8" fill="hsl(0, 0%, 0%)"></rect><rect width="1" height="1" x="0" y="9" fill="hsl(0, 0%, 0%)"></rect><rect width="1" height="1" x="3" y="9" fill="hsl(0, 0%, 0%)"></rect><rect width="1" height="1" x="15" y="9" fill="hsl(0, 0%, 0%)"></rect><rect width="1" height="1" x="19" y="9" fill="hsl(0, 0%, 0%)"></rect><rect width="1" height="1" x="0" y="10" fill="hsl(0, 0%, 0%)"></rect><rect width="1" height="1" x="3" y="10" fill="hsl(0, 0%, 0%)"></rect><rect width="1" height="1" x="15" y="10" fill="hsl(0, 0%, 0%)"></rect><rect width="1" height="1" x="19" y="10" fill="hsl(0, 0%, 0%)"></rect><rect width="1" height="1" x="0" y="11" fill="hsl(0, 0%, 0%)"></rect><rect width="1" height="1" x="3" y="11" fill="hsl(0, 0%, 0%)"></rect><rect width="1" height="1" x="15" y="11" fill="hsl(0, 0%, 0%)"></rect><rect width="1" height="1" x="19" y="11" fill="hsl(0, 0%, 0%)"></rect><rect width="1" height="1" x="0" y="12" fill="hsl(0, 0%, 0%)"></rect><rect width="1" height="1" x="3" y="12" fill="hsl(0, 0%, 0%)"></rect><rect width="1" height="1" x="7" y="12" fill="hsl(0, 0%, 0%)"></rect><rect width="1" height="1" x="11" y="12" fill="hsl(0, 0%, 0%)"></rect><rect width="1" height="1" x="15" y="12" fill="hsl(0, 0%, 0%)"></rect><rect width="1" height="1" x="19" y="12" fill="hsl(0, 0%, 0%)"></rect><rect width="1" height="1" x="0" y="13" fill="hsl(0, 0%, 0%)"></rect><rect width="1" height="1" x="3" y="13" fill="hsl(0, 0%, 0%)"></rect><rect width="1" height="1" x="15" y="13" fill="hsl(0, 0%, 0%)"></rect><rect width="1" height="1" x="19" y="13" fill="hsl(0, 0%, 0%)"></rect><rect width="1" height="1" x="0" y="14" fill="hsl(0, 0%, 0%)"></rect><rect width="1" height="1" x="3" y="14" fill="hsl(0, 0%, 0%)"></rect><rect width="1" height="1" x="15" y="14" fill="hsl(0, 0%, 0%)"></rect><rect width="1" height="1" x="19" y="14" fill="hsl(0, 0%, 0%)"></rect><rect width="1" height="1" x="0" y="15" fill="hsl(0, 0%, 0%)"></rect><rect width="1" height="1" x="3" y="15" fill="hsl(0, 0%, 0%)"></rect><rect width="1" height="1" x="6" y="15" fill="hsl(0, 0%, 0%)"></rect><rect width="1" height="1" x="12" y="15" fill="hsl(0, 0%, 0%)"></rect><rect width="1" height="1" x="15" y="15" fill="hsl(0, 0%, 0%)"></rect><rect width="1" height="1" x="19" y="15" fill="hsl(0, 0%, 0%)"></rect><rect width="1" height="1" x="0" y="16" fill="hsl(0, 0%, 0%)"></rect><rect width="1" height="1" x="3" y="16" fill="hsl(0, 0%, 0%)"></rect><rect width="1" height="1" x="7" y="16" fill="hsl(0, 0%, 0%)"></rect><rect width="1" height="1" x="8" y="16" fill="hsl(0, 0%, 0%)"></rect><rect width="1" height="1" x="9" y="16" fill="hsl(0, 0%, 0%)"></rect><rect width="1" height="1" x="10" y="16" fill="hsl(0, 0%, 0%)"></rect><rect width="1" height="1" x="11" y="16" fill="hsl(0, 0%, 0%)"></rect><rect width="1" height="1" x="15" y="16" fill="hsl(0, 0%, 0%)"></rect><rect width="1" height="1" x="19" y="16" fill="hsl(0, 0%, 0%)"></rect><rect width="1" height="1" x="0" y="17" fill="hsl(0, 0%, 0%)"></rect><rect width="1" height="1" x="3" y="17" fill="hsl(0, 0%, 0%)"></rect><rect width="1" height="1" x="15" y="17" fill="hsl(0, 0%, 0%)"></rect><rect width="1" height="1" x="19" y="17" fill="hsl(0, 0%, 0%)"></rect><rect width="1" height="1" x="0" y="18" fill="hsl(0, 0%, 0%)"></rect><rect width="1" height="1" x="3" y="18" fill="hsl(0, 0%, 0%)"></rect><rect width="1" height="1" x="15" y="18" fill="hsl(0, 0%, 0%)"></rect><rect width="1" height="1" x="19" y="18" fill="hsl(0, 0%, 0%)"></rect><rect width="1" height="1" x="0" y="19" fill="hsl(0, 0%, 0%)"></rect><rect width="1" height="1" x="1" y="19" fill="hsl(0, 0%, 0%)"></rect><rect width="1" height="1" x="2" y="19" fill="hsl(0, 0%, 0%)"></rect><rect width="1" height="1" x="3" y="19" fill="hsl(0, 0%, 0%)"></rect><rect width="1" height="1" x="4" y="19" fill="hsl(0, 0%, 0%)"></rect><rect width="1" height="1" x="5" y="19" fill="hsl(0, 0%, 0%)"></rect><rect width="1" height="1" x="6" y="19" fill="hsl(0, 0%, 0%)"></rect><rect width="1" height="1" x="7" y="19" fill="hsl(0, 0%, 0%)"></rect><rect width="1" height="1" x="8" y="19" fill="hsl(0, 0%, 0%)"></rect><rect width="1" height="1" x="9" y="19" fill="hsl(0, 0%, 0%)"></rect><rect width="1" height="1" x="10" y="19" fill="hsl(0, 0%, 0%)"></rect><rect width="1" height="1" x="11" y="19" fill="hsl(0, 0%, 0%)"></rect><rect width="1" height="1" x="12" y="19" fill="hsl(0, 0%, 0%)"></rect><rect width="1" height="1" x="13" y="19" fill="hsl(0, 0%, 0%)"></rect><rect width="1" height="1" x="14" y="19" fill="hsl(0, 0%, 0%)"></rect><rect width="1" height="1" x="15" y="19" fill="hsl(0, 0%, 0%)"></rect><rect width="1" height="1" x="16" y="19" fill="hsl(0, 0%, 0%)"></rect><rect width="1" height="1" x="17" y="19" fill="hsl(0, 0%, 0%)"></rect><rect width="1" height="1" x="18" y="19" fill="hsl(0, 0%, 0%)"></rect><rect width="1" height="1" x="19" y="19" fill="hsl(0, 0%, 0%)"></rect>
  </svg>
