<svg xmlns="http://www.w3.org/2000/svg" version="1.1" xmlns:xlink="http://www.w3.org/1999/xlink" xmlns:svgjs="http://svgjs.dev/svgjs" viewBox="0 0 20 20" width="20" height="20">
    <rect width="1" height="1" x="17" y="0" fill="hsl(0, 0%, 0%)"></rect><rect width="1" height="1" x="16" y="1" fill="hsl(0, 0%, 0%)"></rect><rect width="1" height="1" x="18" y="1" fill="hsl(0, 0%, 0%)"></rect><rect width="1" height="1" x="15" y="2" fill="hsl(0, 0%, 0%)"></rect><rect width="1" height="1" x="19" y="2" fill="hsl(0, 0%, 0%)"></rect><rect width="1" height="1" x="14" y="3" fill="hsl(0, 0%, 0%)"></rect><rect width="1" height="1" x="19" y="3" fill="hsl(0, 0%, 0%)"></rect><rect width="1" height="1" x="13" y="4" fill="hsl(0, 0%, 0%)"></rect><rect width="1" height="1" x="18" y="4" fill="hsl(0, 0%, 0%)"></rect><rect width="1" height="1" x="12" y="5" fill="hsl(0, 0%, 0%)"></rect><rect width="1" height="1" x="17" y="5" fill="hsl(0, 0%, 0%)"></rect><rect width="1" height="1" x="11" y="6" fill="hsl(0, 0%, 0%)"></rect><rect width="1" height="1" x="16" y="6" fill="hsl(0, 0%, 0%)"></rect><rect width="1" height="1" x="8" y="7" fill="hsl(0, 0%, 0%)"></rect><rect width="1" height="1" x="9" y="7" fill="hsl(0, 0%, 0%)"></rect><rect width="1" height="1" x="10" y="7" fill="hsl(0, 0%, 0%)"></rect><rect width="1" height="1" x="11" y="7" fill="hsl(0, 0%, 0%)"></rect><rect width="1" height="1" x="15" y="7" fill="hsl(0, 0%, 0%)"></rect><rect width="1" height="1" x="6" y="8" fill="hsl(0, 0%, 0%)"></rect><rect width="1" height="1" x="7" y="8" fill="hsl(0, 0%, 0%)"></rect><rect width="1" height="1" x="12" y="8" fill="hsl(0, 0%, 0%)"></rect><rect width="1" height="1" x="14" y="8" fill="hsl(0, 0%, 0%)"></rect><rect width="1" height="1" x="5" y="9" fill="hsl(0, 0%, 0%)"></rect><rect width="1" height="1" x="6" y="9" fill="hsl(0, 0%, 0%)"></rect><rect width="1" height="1" x="13" y="9" fill="hsl(0, 0%, 0%)"></rect><rect width="1" height="1" x="5" y="10" fill="hsl(0, 0%, 0%)"></rect><rect width="1" height="1" x="6" y="10" fill="hsl(50, 98%, 50%)"></rect><rect width="1" height="1" x="7" y="10" fill="hsl(0, 0%, 0%)"></rect><rect width="1" height="1" x="13" y="10" fill="hsl(0, 0%, 0%)"></rect><rect width="1" height="1" x="0" y="11" fill="hsl(50, 98%, 50%)"></rect><rect width="1" height="1" x="1" y="11" fill="hsl(50, 98%, 50%)"></rect><rect width="1" height="1" x="2" y="11" fill="hsl(50, 98%, 50%)"></rect><rect width="1" height="1" x="3" y="11" fill="hsl(50, 98%, 50%)"></rect><rect width="1" height="1" x="5" y="11" fill="hsl(0, 0%, 0%)"></rect><rect width="1" height="1" x="6" y="11" fill="hsl(50, 98%, 50%)"></rect><rect width="1" height="1" x="7" y="11" fill="hsl(50, 98%, 50%)"></rect><rect width="1" height="1" x="8" y="11" fill="hsl(0, 0%, 0%)"></rect><rect width="1" height="1" x="13" y="11" fill="hsl(0, 0%, 0%)"></rect><rect width="1" height="1" x="5" y="12" fill="hsl(0, 0%, 0%)"></rect><rect width="1" height="1" x="6" y="12" fill="hsl(0, 0%, 0%)"></rect><rect width="1" height="1" x="7" y="12" fill="hsl(50, 98%, 50%)"></rect><rect width="1" height="1" x="8" y="12" fill="hsl(50, 98%, 50%)"></rect><rect width="1" height="1" x="9" y="12" fill="hsl(0, 0%, 0%)"></rect><rect width="1" height="1" x="13" y="12" fill="hsl(0, 0%, 0%)"></rect><rect width="1" height="1" x="2" y="13" fill="hsl(50, 98%, 50%)"></rect><rect width="1" height="1" x="3" y="13" fill="hsl(50, 98%, 50%)"></rect><rect width="1" height="1" x="6" y="13" fill="hsl(0, 0%, 0%)"></rect><rect width="1" height="1" x="7" y="13" fill="hsl(50, 98%, 50%)"></rect><rect width="1" height="1" x="8" y="13" fill="hsl(50, 98%, 50%)"></rect><rect width="1" height="1" x="9" y="13" fill="hsl(50, 98%, 50%)"></rect><rect width="1" height="1" x="10" y="13" fill="hsl(0, 0%, 0%)"></rect><rect width="1" height="1" x="12" y="13" fill="hsl(0, 0%, 0%)"></rect><rect width="1" height="1" x="0" y="14" fill="hsl(50, 98%, 50%)"></rect><rect width="1" height="1" x="1" y="14" fill="hsl(50, 98%, 50%)"></rect><rect width="1" height="1" x="7" y="14" fill="hsl(0, 0%, 0%)"></rect><rect width="1" height="1" x="8" y="14" fill="hsl(0, 0%, 0%)"></rect><rect width="1" height="1" x="9" y="14" fill="hsl(50, 98%, 50%)"></rect><rect width="1" height="1" x="10" y="14" fill="hsl(50, 98%, 50%)"></rect><rect width="1" height="1" x="11" y="14" fill="hsl(0, 0%, 0%)"></rect><rect width="1" height="1" x="12" y="14" fill="hsl(0, 0%, 0%)"></rect><rect width="1" height="1" x="4" y="15" fill="hsl(50, 98%, 50%)"></rect><rect width="1" height="1" x="8" y="15" fill="hsl(0, 0%, 0%)"></rect><rect width="1" height="1" x="9" y="15" fill="hsl(0, 0%, 0%)"></rect><rect width="1" height="1" x="10" y="15" fill="hsl(0, 0%, 0%)"></rect><rect width="1" height="1" x="11" y="15" fill="hsl(0, 0%, 0%)"></rect><rect width="1" height="1" x="3" y="16" fill="hsl(50, 98%, 50%)"></rect><rect width="1" height="1" x="6" y="16" fill="hsl(50, 98%, 50%)"></rect><rect width="1" height="1" x="2" y="17" fill="hsl(50, 98%, 50%)"></rect><rect width="1" height="1" x="6" y="17" fill="hsl(50, 98%, 50%)"></rect><rect width="1" height="1" x="8" y="17" fill="hsl(50, 98%, 50%)"></rect><rect width="1" height="1" x="1" y="18" fill="hsl(50, 98%, 50%)"></rect><rect width="1" height="1" x="5" y="18" fill="hsl(50, 98%, 50%)"></rect><rect width="1" height="1" x="8" y="18" fill="hsl(50, 98%, 50%)"></rect><rect width="1" height="1" x="0" y="19" fill="hsl(50, 98%, 50%)"></rect><rect width="1" height="1" x="5" y="19" fill="hsl(50, 98%, 50%)"></rect><rect width="1" height="1" x="8" y="19" fill="hsl(50, 98%, 50%)"></rect>
</svg>
