<svg xmlns="http://www.w3.org/2000/svg" version="1.1" xmlns:xlink="http://www.w3.org/1999/xlink" xmlns:svgjs="http://svgjs.dev/svgjs"  viewBox="0 0 20 20" width="20" height="20">
    <rect width="1" height="1" x="4" y="4" fill="hsl(0, 0%, 0%)"></rect><rect width="1" height="1" x="5" y="4" fill="hsl(0, 0%, 0%)"></rect><rect width="1" height="1" x="4" y="5" fill="hsl(0, 0%, 0%)"></rect><rect width="1" height="1" x="5" y="5" fill="hsl(0, 0%, 0%)"></rect><rect width="1" height="1" x="12" y="5" fill="hsl(0, 0%, 0%)"></rect><rect width="1" height="1" x="13" y="5" fill="hsl(0, 0%, 0%)"></rect><rect width="1" height="1" x="14" y="5" fill="hsl(0, 0%, 0%)"></rect><rect width="1" height="1" x="15" y="5" fill="hsl(0, 0%, 0%)"></rect><rect width="1" height="1" x="2" y="13" fill="hsl(0, 0%, 0%)"></rect><rect width="1" height="1" x="17" y="13" fill="hsl(0, 0%, 0%)"></rect><rect width="1" height="1" x="2" y="14" fill="hsl(0, 0%, 0%)"></rect><rect width="1" height="1" x="3" y="14" fill="hsl(0, 0%, 0%)"></rect><rect width="1" height="1" x="16" y="14" fill="hsl(0, 0%, 0%)"></rect><rect width="1" height="1" x="17" y="14" fill="hsl(0, 0%, 0%)"></rect><rect width="1" height="1" x="3" y="15" fill="hsl(0, 0%, 0%)"></rect><rect width="1" height="1" x="4" y="15" fill="hsl(0, 0%, 0%)"></rect><rect width="1" height="1" x="5" y="15" fill="hsl(0, 0%, 0%)"></rect><rect width="1" height="1" x="14" y="15" fill="hsl(0, 0%, 0%)"></rect><rect width="1" height="1" x="15" y="15" fill="hsl(0, 0%, 0%)"></rect><rect width="1" height="1" x="16" y="15" fill="hsl(0, 0%, 0%)"></rect><rect width="1" height="1" x="6" y="16" fill="hsl(0, 0%, 0%)"></rect><rect width="1" height="1" x="7" y="16" fill="hsl(0, 0%, 0%)"></rect><rect width="1" height="1" x="8" y="16" fill="hsl(0, 0%, 0%)"></rect><rect width="1" height="1" x="9" y="16" fill="hsl(0, 0%, 0%)"></rect><rect width="1" height="1" x="10" y="16" fill="hsl(0, 0%, 0%)"></rect><rect width="1" height="1" x="11" y="16" fill="hsl(0, 0%, 0%)"></rect><rect width="1" height="1" x="12" y="16" fill="hsl(0, 0%, 0%)"></rect><rect width="1" height="1" x="13" y="16" fill="hsl(0, 0%, 0%)"></rect>
  </svg>
